<?xml version="1.0" standalone="no"?>
<!DOCTYPE svg PUBLIC "-//W3C//DTD SVG 20010904//EN"
 "http://www.w3.org/TR/2001/REC-SVG-20010904/DTD/svg10.dtd">
<svg version="1.0" xmlns="http://www.w3.org/2000/svg"
 width="520.000000pt" height="800.000000pt" viewBox="0 0 520.000000 800.000000"
 preserveAspectRatio="xMidYMid meet">

<g transform="translate(0.000000,800.000000) scale(0.100000,-0.100000)"
fill="#000000" stroke="none">
<path d="M3866 7981 c-14 -15 -44 -111 -46 -144 0 -4 14 -13 30 -19 l30 -10
-5 -82 c-3 -44 -10 -200 -15 -346 -9 -249 -23 -431 -35 -450 -3 -5 -8 -28 -11
-52 -3 -24 -12 -65 -20 -93 -9 -27 -26 -117 -40 -200 -13 -82 -35 -208 -49
-280 -27 -143 -54 -427 -64 -660 l-6 -150 -32 120 c-60 223 -85 362 -88 490
-1 66 -12 192 -23 280 -12 90 -22 221 -23 300 0 77 -1 181 -2 230 -2 124 20
389 37 450 7 28 25 86 39 130 14 44 29 97 33 118 6 38 15 42 69 39 14 -1 26
10 38 34 22 46 22 69 -4 111 -17 27 -27 34 -44 31 -14 -3 -26 2 -34 14 -9 14
-21 18 -44 16 -27 -3 -33 -7 -35 -33 -2 -16 -12 -41 -23 -56 -23 -33 -24 -49
-4 -49 8 0 15 -4 15 -10 0 -5 7 -10 15 -10 8 0 15 -2 15 -5 0 -17 -66 -330
-90 -425 -53 -212 -64 -524 -26 -730 22 -117 36 -293 40 -496 l4 -171 51 -173
c69 -230 84 -300 64 -300 -26 0 -79 30 -108 60 -16 17 -34 30 -41 30 -7 0 -23
15 -35 33 -13 17 -38 49 -56 71 -18 21 -51 76 -73 122 -22 46 -57 104 -76 130
-20 25 -42 63 -49 83 -7 20 -30 74 -52 121 -22 47 -53 119 -68 160 -15 41 -33
82 -39 90 -35 45 -175 423 -181 487 -2 28 -10 63 -16 79 -6 16 -17 56 -24 89
-21 92 -74 294 -91 350 -8 28 -16 70 -17 94 -2 40 1 45 32 61 18 11 44 28 56
40 21 19 21 24 10 58 -9 26 -20 38 -37 40 -12 2 -27 10 -31 18 -6 10 -13 12
-27 4 -12 -7 -27 -7 -45 0 -14 5 -28 10 -30 10 -10 0 -33 -58 -39 -96 -7 -38
-5 -43 23 -65 28 -22 31 -31 36 -99 4 -41 19 -118 35 -170 49 -163 67 -230
104 -380 22 -87 54 -182 80 -240 123 -267 146 -320 165 -379 12 -35 21 -69 21
-74 0 -17 102 -250 122 -279 10 -15 40 -71 66 -125 61 -126 99 -181 192 -273
61 -62 89 -81 148 -105 l74 -30 1 -125 c2 -138 -9 -331 -23 -400 -11 -53 -21
-198 -25 -365 -2 -66 -11 -160 -20 -210 -22 -118 -32 -180 -39 -235 -2 -25
-10 -77 -16 -116 -6 -39 -10 -75 -9 -80 5 -17 -13 -99 -31 -144 -18 -46 -54
-164 -63 -210 -12 -55 -87 -301 -121 -390 -84 -228 -106 -286 -116 -302 -5
-10 -10 -24 -10 -32 0 -7 -11 -33 -24 -57 -25 -48 -62 -209 -53 -233 4 -9 0
-28 -8 -43 -8 -15 -15 -40 -15 -54 0 -15 -11 -61 -25 -103 -14 -42 -25 -87
-25 -99 0 -32 -38 -240 -61 -332 -16 -65 -21 -138 -29 -380 -6 -165 -12 -354
-15 -420 -3 -66 -7 -186 -10 -268 -2 -81 -8 -155 -13 -165 -5 -9 -8 -80 -6
-157 2 -95 -2 -173 -13 -242 -14 -87 -15 -106 -3 -128 15 -28 50 -34 70 -10 7
9 15 86 21 217 5 112 13 238 19 281 5 42 7 119 4 170 -3 50 0 202 6 337 6 135
13 310 15 390 1 80 5 170 8 200 3 30 8 107 12 170 9 170 22 262 55 385 16 61
40 159 55 218 14 60 55 187 90 282 36 96 65 180 65 187 0 7 15 45 34 84 33 68
86 231 86 265 0 9 8 27 19 40 10 13 28 49 41 79 12 30 29 71 37 90 9 19 17 44
19 55 1 11 7 34 13 50 5 17 17 68 27 115 9 47 23 113 31 147 8 34 12 67 9 72
-3 5 1 25 9 45 9 20 18 83 21 139 3 56 10 126 15 156 5 30 9 115 9 188 0 138
9 227 36 348 10 47 12 83 7 109 -10 48 2 237 22 337 8 42 15 90 15 107 0 31 1
32 48 32 26 0 88 12 137 26 103 29 341 149 406 203 106 90 276 250 312 296 21
27 85 97 141 155 55 58 114 125 130 148 16 24 46 62 66 85 20 23 39 50 43 60
3 9 12 17 18 17 6 0 9 9 6 20 -6 23 -1 24 58 9 42 -11 45 -10 84 22 22 19 41
39 41 44 -1 15 -62 78 -92 94 -15 7 -34 11 -42 8 -27 -10 -76 -88 -71 -111 4
-19 -40 -83 -125 -183 -6 -7 -20 -30 -32 -50 -11 -21 -93 -111 -182 -199 -89
-89 -198 -202 -243 -251 -85 -93 -95 -100 -363 -250 -110 -62 -201 -93 -271
-93 l-49 0 142 131 c79 73 164 149 190 169 66 53 210 207 243 260 15 25 44 65
65 90 53 65 129 196 209 358 38 79 73 148 78 155 5 6 19 39 32 72 13 33 32 79
42 101 10 23 30 86 45 140 15 55 33 122 41 149 27 92 41 169 49 263 6 87 8 94
33 106 62 33 103 106 76 136 -8 9 -15 24 -15 33 0 17 -33 32 -49 22 -5 -3 -12
-1 -16 5 -10 17 -51 11 -70 -10 -29 -32 -33 -124 -8 -159 20 -26 20 -30 6
-111 -22 -129 -43 -221 -58 -262 -8 -20 -19 -68 -25 -105 -11 -74 -24 -114
-50 -153 -8 -14 -24 -52 -35 -85 -19 -59 -30 -83 -154 -336 -73 -149 -205
-356 -287 -452 -55 -63 -119 -118 -277 -239 -34 -26 -75 -57 -90 -69 -16 -12
-45 -44 -65 -70 -20 -27 -37 -47 -39 -46 -2 3 21 88 70 252 13 44 55 170 94
280 39 110 90 256 113 325 23 69 57 158 76 198 19 40 34 81 34 91 0 10 9 53
20 96 11 43 20 90 20 105 0 15 11 49 25 76 14 27 37 101 51 164 15 63 39 154
55 202 16 48 29 96 29 108 0 11 14 63 31 116 22 69 34 94 44 90 18 -7 91 29
99 49 17 45 0 95 -32 95 -7 0 -20 6 -27 14 -17 17 -79 11 -113 -10 -13 -8 -28
-27 -35 -41 -10 -23 -9 -28 11 -41 12 -8 22 -23 22 -33 0 -22 -49 -213 -94
-369 -43 -146 -56 -202 -56 -237 0 -30 -37 -183 -69 -286 -11 -34 -30 -96 -42
-137 -13 -41 -43 -112 -67 -158 -29 -54 -56 -128 -78 -210 -68 -257 -133 -458
-179 -558 -8 -18 -26 -72 -39 -120 l-25 -89 0 134 c-1 74 6 202 15 285 15 144
25 206 59 361 9 38 13 75 11 82 -3 7 1 27 8 45 8 18 16 69 19 113 3 44 18 148
32 230 46 261 91 702 86 850 -2 50 0 132 4 183 6 75 10 92 23 92 24 0 82 43
82 61 0 8 -5 20 -11 26 -9 9 -9 20 1 43 15 36 9 45 -37 55 -22 4 -33 3 -33 -5
0 -7 -8 -5 -22 4 -28 20 -31 20 -52 -3z"/>
<path d="M1131 6136 c-8 -9 -8 -22 -2 -38 7 -19 6 -29 -7 -42 -16 -16 -15 -19
11 -42 15 -13 38 -24 49 -24 21 0 21 -2 13 -132 -12 -193 -6 -568 11 -758 21
-219 35 -407 34 -448 0 -18 7 -74 16 -125 18 -111 30 -504 16 -562 -9 -37 -10
-38 -11 -10 -1 17 -8 41 -16 55 -8 14 -15 41 -15 60 -1 34 -22 118 -53 210
-42 124 -59 192 -76 294 -11 61 -29 133 -41 161 -12 27 -27 63 -35 80 -14 32
-26 77 -51 190 -36 164 -44 213 -44 257 0 26 -11 102 -24 170 -13 68 -27 148
-30 179 -3 31 -12 74 -19 95 -8 21 -17 60 -21 87 -7 45 -6 48 19 57 l27 10
-19 33 c-13 21 -33 37 -60 47 -39 13 -45 13 -80 -6 -40 -21 -49 -40 -39 -79 6
-22 54 -55 82 -55 15 0 30 -48 45 -145 6 -38 20 -108 30 -155 10 -47 26 -129
34 -184 9 -54 19 -104 22 -110 4 -6 13 -53 19 -106 19 -145 30 -198 57 -280
14 -41 44 -147 67 -235 22 -88 47 -180 55 -205 25 -87 53 -196 69 -270 9 -41
22 -94 27 -117 17 -64 7 -70 -31 -15 -18 27 -46 57 -61 66 -14 9 -87 75 -160
148 -119 118 -141 145 -196 243 -95 170 -231 485 -254 585 -6 30 -22 76 -35
102 -14 28 -24 65 -24 91 0 23 -6 67 -14 97 -13 52 -19 90 -31 205 -3 28 -8
67 -11 87 -4 29 -1 44 15 64 24 30 28 88 9 129 -10 22 -17 25 -52 24 -57 -3
-64 -7 -82 -45 -20 -42 -12 -69 36 -114 l38 -35 5 -110 c3 -64 17 -156 31
-219 14 -59 26 -115 26 -125 0 -20 75 -252 89 -278 6 -10 24 -52 40 -93 33
-86 195 -438 226 -490 35 -62 158 -186 425 -430 l45 -42 -42 6 c-69 10 -195
69 -310 146 -112 75 -157 117 -247 235 -30 39 -90 106 -133 150 -90 92 -183
199 -183 211 0 9 -10 24 -94 150 -22 33 -39 68 -38 78 1 26 -34 92 -53 99 -8
4 -23 3 -33 0 -24 -9 -92 -66 -92 -78 0 -19 71 -76 88 -71 60 18 75 19 70 5
-8 -20 151 -258 216 -324 16 -16 60 -70 97 -120 79 -104 276 -311 325 -340 18
-11 73 -44 121 -74 48 -30 111 -62 138 -72 l50 -18 -45 6 c-74 9 -181 30 -240
47 -30 9 -84 21 -119 27 -35 5 -76 16 -92 24 -15 8 -35 15 -43 15 -21 0 -343
157 -382 186 -21 15 -35 37 -43 66 -17 68 -22 72 -65 54 -40 -17 -46 -38 -21
-85 14 -29 51 -46 77 -36 7 3 38 -13 68 -35 115 -83 137 -97 190 -117 182 -70
471 -152 557 -159 37 -3 77 -9 88 -14 11 -5 45 -11 75 -14 113 -9 117 -12 124
-70 4 -29 9 -113 11 -187 2 -73 11 -179 20 -234 9 -55 25 -163 35 -240 11 -77
24 -171 29 -210 6 -38 18 -140 26 -225 14 -139 54 -335 85 -414 6 -17 18 -100
25 -185 8 -86 19 -196 25 -246 5 -49 12 -178 14 -285 4 -158 9 -210 26 -275
38 -143 48 -253 39 -424 -5 -86 -11 -212 -14 -281 -2 -69 -9 -170 -14 -225
-18 -173 -18 -171 36 -195 25 -11 49 -18 52 -14 3 3 7 137 9 297 3 309 -11
549 -49 822 -31 228 -63 546 -79 805 -7 107 -20 204 -36 275 -53 228 -94 441
-94 485 0 25 -7 99 -16 165 -8 66 -19 161 -24 210 -5 50 -14 131 -20 180 -14
108 -18 375 -7 427 l8 36 112 26 c62 15 139 38 172 52 33 15 88 37 122 50 141
53 252 119 323 193 25 25 96 91 157 146 101 90 158 155 192 223 7 12 18 22 26
22 8 0 26 5 40 12 21 9 25 18 25 55 0 30 -5 45 -15 49 -8 4 -15 12 -15 20 0 8
-9 14 -20 14 -11 0 -20 -5 -20 -10 0 -6 -11 -20 -25 -32 -26 -22 -32 -52 -16
-77 10 -16 -8 -45 -69 -110 -19 -20 -62 -68 -95 -105 -50 -57 -116 -108 -244
-191 -8 -5 -47 -33 -85 -61 -75 -54 -248 -142 -343 -175 l-57 -19 75 78 c125
132 136 145 189 248 29 54 68 127 87 161 18 35 45 92 58 128 29 77 60 139 147
300 121 223 137 260 188 420 15 50 33 104 38 120 31 92 52 176 57 225 5 48 10
57 36 73 29 16 30 20 24 60 -11 65 -22 80 -54 74 -16 -3 -33 -1 -40 6 -10 9
-15 8 -24 -4 -7 -9 -16 -14 -22 -13 -15 5 -29 -8 -43 -39 -10 -24 -9 -30 10
-50 13 -12 31 -26 42 -32 43 -22 41 -32 -53 -312 -50 -149 -91 -279 -91 -288
0 -9 -27 -75 -60 -146 -33 -71 -60 -133 -60 -138 0 -5 -10 -21 -22 -36 -44
-55 -208 -369 -208 -398 0 -9 -18 -37 -40 -62 -23 -26 -51 -68 -64 -93 -27
-53 -151 -202 -167 -202 -6 0 -28 -13 -48 -29 -20 -15 -49 -31 -64 -35 l-28
-7 16 32 c9 17 22 58 30 92 7 34 29 118 50 187 26 88 38 150 41 210 2 47 9
119 14 160 6 41 13 95 16 120 3 25 19 103 36 174 49 216 57 393 29 722 -5 61
-14 128 -20 150 -5 21 -12 53 -15 69 -3 17 -8 42 -12 58 -4 19 -2 27 8 27 8 0
22 6 32 13 16 12 16 14 -3 39 -12 15 -18 33 -15 42 14 37 -49 63 -75 32 -7 -8
-20 -12 -30 -9 -23 6 -61 -40 -61 -73 0 -46 20 -71 61 -78 33 -5 39 -10 39
-31 0 -14 12 -73 26 -132 22 -91 26 -134 29 -311 2 -120 0 -225 -6 -256 -6
-28 -12 -87 -14 -131 -3 -83 -50 -367 -66 -396 -5 -9 -11 -59 -13 -110 -6 -97
-55 -290 -111 -430 l-25 -64 7 110 c14 221 2 555 -28 805 -6 47 -12 110 -15
140 -5 56 -16 131 -37 255 -13 73 -14 153 -6 498 l4 208 28 6 c29 6 29 6 22
62 -4 31 -11 64 -16 74 -11 19 -39 23 -56 6 -8 -8 -13 -8 -17 0 -10 16 -51 14
-65 -3z"/>
</g>
</svg>
